<?xml version="1.0" encoding="utf-8"?>
<!-- Generator: Adobe Illustrator 16.0.0, SVG Export Plug-In . SVG Version: 6.00 Build 0)  -->
<!DOCTYPE svg PUBLIC "-//W3C//DTD SVG 1.1//EN" "http://www.w3.org/Graphics/SVG/1.1/DTD/svg11.dtd">
<svg version="1.1" id="Layer_1" xmlns="http://www.w3.org/2000/svg" xmlns:xlink="http://www.w3.org/1999/xlink" x="0px" y="0px"
	 width="195px" height="74px" viewBox="0 0 195 74" enable-background="new 0 0 195 74" xml:space="preserve">
<path fill-rule="evenodd" clip-rule="evenodd" fill="#7AC143" d="M194.5,50.055c-1.055,0-2.107,0-3.197,0
	c-4-6.107-8-12.213-11.999-18.319c-0.041,0.011-0.081,0.022-0.121,0.034c0,6.062,0,12.123,0,18.246c-1.309,0-2.551,0-3.801,0
	c-0.158-0.234-0.087-0.5-0.087-0.748c-0.004-8.248-0.002-16.497,0-24.746c0-0.257,0.012-0.514,0.019-0.771c1.187,0,2.372,0,3.559,0
	c-0.092,0.208,0.067,0.343,0.158,0.484c0.995,1.531,2,3.056,3,4.583c1.986,3.035,3.972,6.071,5.959,9.105
	c0.839,1.281,1.684,2.559,2.525,3.838c0.039-0.013,0.078-0.025,0.117-0.038c0-5.991,0-11.982,0-17.973c1.289,0,2.579,0,3.868,0
	C194.5,32.519,194.5,41.287,194.5,50.055z"/>
<path fill-rule="evenodd" clip-rule="evenodd" fill="#7AC143" d="M38.838,23.75c0.646,0.272,1.35,0.163,2.021,0.302
	c2.058,0.425,3.885,1.219,5.076,3.054c0.684,1.055,1.062,2.229,1.105,3.49c0.035,1.054,0.087,2.111-0.175,3.151
	c-0.441,1.745-1.337,3.16-2.919,4.09c-0.152,0.089-0.331,0.154-0.422,0.4c0.33,0.62,0.677,1.274,1.025,1.929
	c1.234,2.317,2.458,4.641,3.714,6.947c0.22,0.404,0.315,0.795,0.307,1.243c-0.012,0.617,0.01,1.235,0.018,1.853
	c-1.083,0-2.167,0-3.25,0c0.021-0.334-0.203-0.574-0.343-0.84c-0.945-1.795-1.906-3.583-2.863-5.373
	c-0.87-1.627-1.742-3.252-2.641-4.934c-1.593,0.188-3.202,0.064-4.775,0.139c-0.149,0.383-0.096,0.693-0.097,0.998
	c-0.005,3.035-0.002,6.07-0.003,9.104c0,0.306,0.037,0.617-0.109,0.905c-1.289,0-2.579,0-3.868,0
	c0.007-0.385,0.019-0.77,0.019-1.154c0.005-8.385,0.01-16.77,0.013-25.154c0-0.05-0.021-0.1-0.032-0.15
	C33.371,23.75,36.104,23.75,38.838,23.75z M34.66,35.27c0.215,0.015,0.366,0.036,0.516,0.035c1.184-0.01,2.368-0.017,3.552-0.04
	c0.851-0.016,1.691-0.12,2.506-0.375c0.929-0.29,1.536-0.881,1.784-1.847c0.196-0.764,0.199-1.537,0.122-2.301
	c-0.151-1.503-0.923-2.397-2.384-2.765c-1.995-0.502-4.027-0.317-6.096-0.325C34.66,30.208,34.66,32.695,34.66,35.27z"/>
<path fill-rule="evenodd" clip-rule="evenodd" fill="#7AC143" d="M127.501,50.209c-0.385-0.272-0.846-0.149-1.267-0.231
	c-4.805-0.945-7.746-3.854-8.884-8.553c-0.82-3.388-0.808-6.796,0.401-10.114c1.413-3.875,4.173-6.274,8.177-7.251
	c0.276-0.068,0.607-0.015,0.798-0.31c1.495,0,2.992,0,4.487,0c0.042,0.168,0.186,0.142,0.306,0.161
	c2.133,0.327,4.056,1.115,5.709,2.633c0,0.947,0,1.943,0,3.032c-0.83,0-1.646,0.009-2.463-0.005
	c-0.241-0.005-0.428-0.169-0.588-0.343c-0.782-0.855-1.798-1.25-2.897-1.494c-1.746-0.388-3.482-0.329-5.183,0.191
	c-2.5,0.763-4.04,2.534-4.738,4.977c-0.84,2.937-0.784,5.9,0.229,8.803c0.908,2.602,2.792,4.057,5.486,4.488
	c1.904,0.307,3.792,0.217,5.653-0.305c0.422-0.118,0.831-0.269,1.236-0.531c0-2.09,0-4.196,0-6.391c-1.482,0-2.963,0-4.502,0
	c0-1.045,0-2.006,0-3.037c2.805,0,5.594,0,8.446,0c0,3.888,0,7.762,0,11.669c-1.908,1.298-4.014,2.126-6.315,2.449
	c-0.138,0.019-0.322-0.053-0.38,0.16C129.976,50.209,128.738,50.209,127.501,50.209z"/>
<path fill-rule="evenodd" clip-rule="evenodd" fill="#7AC143" d="M164.637,23.75c0,1.259,0,2.517,0,3.863c-4.21,0-8.37,0-12.584,0
	c0,2.341,0,4.595,0,6.949c3.169,0,6.323,0,9.441,0c0.215,0.614,0.256,2.819,0.083,3.854c-3.156,0-6.333,0-9.528,0
	c0,2.676,0,5.239,0,7.869c4.346,0,8.642,0,12.996,0c0,1.283,0,2.502,0,3.758c-5.627,0-11.235,0-16.825,0
	c-0.185-0.229-0.116-0.471-0.116-0.694c-0.001-8.458,0.003-16.914,0.005-25.371c0-0.076-0.019-0.151-0.028-0.228
	C153.599,23.75,159.117,23.75,164.637,23.75z"/>
<path fill-rule="evenodd" clip-rule="evenodd" fill="#7AC143" d="M13.616,23.75c0.209,0.285,0.554,0.219,0.828,0.275
	c2.264,0.461,4.041,1.722,5.627,3.326c0,0.94,0,1.863,0,2.842c-0.937,0-1.853,0-2.864,0c-0.134-0.056-0.263-0.258-0.402-0.436
	c-0.934-1.203-2.168-1.882-3.663-2.078c-1.545-0.203-3.077-0.199-4.563,0.388c-2.132,0.842-3.403,2.49-4.058,4.58
	c-0.967,3.084-0.875,6.196,0.198,9.253c0.983,2.806,3.391,4.503,6.363,4.472c1.546-0.016,3.023-0.199,4.38-0.996
	c0.863-0.506,1.516-1.225,2.092-2.068c0.949,0,1.894,0,2.908,0c0,0.932,0,1.847,0,2.849c-1.881,2.141-4.237,3.581-7.205,3.91
	c-0.149,0.017-0.315-0.014-0.416,0.144c-1.032,0-2.063,0-3.095,0c-0.118-0.19-0.317-0.126-0.487-0.157
	c-2.482-0.456-4.606-1.532-6.252-3.5c-1.479-1.767-2.271-3.821-2.715-6.048C0.228,40.178,0.313,39.79,0,39.533
	c0-1.547,0-3.095,0-4.643c0.269-0.904,0.326-1.853,0.602-2.759c1.207-3.959,3.61-6.756,7.664-7.962
	c0.586-0.174,1.194-0.281,1.792-0.419C11.244,23.75,12.43,23.75,13.616,23.75z"/>
<path fill-rule="evenodd" clip-rule="evenodd" fill="#7AC143" d="M92.686,23.75c-0.126,1.301,0.015,2.611-0.083,3.994
	c-2.651,0-5.266,0-7.95,0c0,7.47,0,14.857,0,22.29c-1.321,0-2.571,0-3.916,0c0-7.379,0-14.761,0-22.228c-2.68,0-5.269,0-7.939,0
	c-0.123-1.403,0.002-2.733-0.073-4.056C79.378,23.75,86.032,23.75,92.686,23.75z"/>
<path fill-rule="evenodd" clip-rule="evenodd" fill="#7AC143" d="M58.799,50.209c-0.131-0.316-0.107-0.65-0.107-0.982
	c0-8.289,0.001-16.58-0.001-24.87c0-0.202,0.061-0.412-0.047-0.607c1.341,0,2.682,0,4.023,0c-0.107,0.195-0.047,0.405-0.047,0.607
	c-0.002,8.29-0.001,16.581-0.001,24.87c0,0.332,0.024,0.666-0.107,0.982C61.275,50.209,60.037,50.209,58.799,50.209z"/>
<path fill-rule="evenodd" clip-rule="evenodd" fill="#7AC143" d="M106.767,23.75c-0.106,0.222-0.046,0.457-0.046,0.685
	c-0.004,8.29-0.003,16.579-0.004,24.869c0,0.306,0.029,0.615-0.105,0.905c-1.238,0-2.476,0-3.714,0
	c-0.167-0.25-0.136-0.534-0.136-0.812c0.005-8.499,0.01-16.998,0.014-25.496c0-0.051-0.021-0.1-0.032-0.15
	C104.084,23.75,105.425,23.75,106.767,23.75z"/>
</svg>
